<svg width="56" height="207" viewBox="0 0 56 207" fill="none" xmlns="http://www.w3.org/2000/svg">
<path d="M54.9 6.507L54.9 10.638L36 17.145L36 13.743L41.211 12.015L41.211 5.13L36 3.402L36 -9.61651e-07L54.9 6.507ZM44.37 10.989L51.714 8.586L44.37 6.156L44.37 10.989ZM54.9 27.0217C54.9 27.7597 54.783 28.4257 54.549 29.0197C54.315 29.6137 53.982 30.1267 53.55 30.5587C53.118 30.9907 52.596 31.3237 51.984 31.5577C51.39 31.7917 50.724 31.9087 49.986 31.9087C49.266 31.9087 48.6 31.8007 47.988 31.5847C47.394 31.3687 46.89 31.0537 46.476 30.6397C46.008 31.4317 45.36 32.0437 44.532 32.4757C43.722 32.9077 42.768 33.1237 41.67 33.1237C40.806 33.1237 40.023 32.9887 39.321 32.7187C38.637 32.4487 38.043 32.0707 37.539 31.5847C37.053 31.0987 36.675 30.5137 36.405 29.8297C36.135 29.1457 36 28.3807 36 27.5347L36 19.4347L54.9 19.4347L54.9 27.0217ZM51.903 22.7827L47.61 22.7827L47.61 26.4277C47.61 27.0577 47.799 27.5707 48.177 27.9667C48.573 28.3627 49.104 28.5607 49.77 28.5607C50.4 28.5607 50.913 28.3627 51.309 27.9667C51.705 27.5707 51.903 27.0577 51.903 26.4277L51.903 22.7827ZM38.997 26.9947C38.997 27.8227 39.249 28.4887 39.753 28.9927C40.275 29.5147 40.959 29.7757 41.805 29.7757C42.651 29.7757 43.326 29.5147 43.83 28.9927C44.352 28.4887 44.613 27.8227 44.613 26.9947L44.613 22.7827L38.997 22.7827L38.997 26.9947ZM45.369 35.7697C46.845 35.7697 48.186 36.0037 49.392 36.4717C50.616 36.9577 51.66 37.6327 52.524 38.4967C53.406 39.3787 54.09 40.4227 54.576 41.6287C55.062 42.8347 55.305 44.1667 55.305 45.6247C55.305 47.0827 55.062 48.3967 54.576 49.5667C54.09 50.7547 53.415 51.7627 52.551 52.5907C51.687 53.4367 50.652 54.0847 49.446 54.5347C48.24 54.9847 46.917 55.2097 45.477 55.2097C44.001 55.2097 42.66 54.9757 41.454 54.5077C40.266 54.0397 39.249 53.3827 38.403 52.5367C37.557 51.6907 36.9 50.6647 36.432 49.4587C35.964 48.2707 35.73 46.9477 35.73 45.4897C35.73 44.0317 35.955 42.6997 36.405 41.4937C36.873 40.3057 37.53 39.2887 38.376 38.4427C39.222 37.5967 40.239 36.9397 41.427 36.4717C42.615 36.0037 43.929 35.7697 45.369 35.7697ZM51.957 45.5707C51.957 44.5987 51.795 43.7167 51.471 42.9247C51.165 42.1327 50.724 41.4487 50.148 40.8727C49.59 40.3147 48.906 39.8827 48.096 39.5767C47.286 39.2707 46.386 39.1177 45.396 39.1177C44.424 39.1177 43.551 39.2617 42.777 39.5497C42.003 39.8557 41.337 40.2787 40.779 40.8187C40.239 41.3767 39.816 42.0517 39.51 42.8437C39.222 43.6357 39.078 44.5177 39.078 45.4897C39.078 46.4617 39.222 47.3437 39.51 48.1357C39.816 48.9277 40.248 49.5937 40.806 50.1337C41.364 50.6917 42.039 51.1147 42.831 51.4027C43.623 51.7087 44.505 51.8617 45.477 51.8617C46.449 51.8617 47.331 51.7177 48.123 51.4297C48.933 51.1417 49.617 50.7187 50.175 50.1607C50.751 49.6207 51.192 48.9637 51.498 48.1897C51.804 47.4157 51.957 46.5427 51.957 45.5707ZM54.9 58.3031L54.9 61.6511L43.533 61.6511C42.183 61.6511 41.103 62.0561 40.293 62.8661C39.483 63.6941 39.078 64.8011 39.078 66.1871C39.078 67.5371 39.483 68.6171 40.293 69.4271C41.103 70.2371 42.183 70.6421 43.533 70.6421L54.9 70.6421L54.9 73.9901L43.749 73.9901C42.597 73.9901 41.544 73.8011 40.59 73.4231C39.636 73.0451 38.817 72.5141 38.133 71.8301C37.449 71.1461 36.918 70.3091 36.54 69.3191C36.18 68.3471 36 67.2581 36 66.0521C36 64.9001 36.18 63.8471 36.54 62.8931C36.918 61.9391 37.449 61.1201 38.133 60.4361C38.817 59.7521 39.636 59.2211 40.59 58.8431C41.544 58.4831 42.597 58.3031 43.749 58.3031L54.9 58.3031ZM51.741 83.1891L51.741 77.7621L54.9 77.7621L54.9 91.6941L51.741 91.6941L51.741 86.5371L36 86.5371L36 83.1891L51.741 83.1891ZM54.9 101.413L54.9 104.761L43.533 104.761C42.183 104.761 41.103 105.166 40.293 105.976C39.483 106.804 39.078 107.911 39.078 109.297C39.078 110.647 39.483 111.727 40.293 112.537C41.103 113.347 42.183 113.752 43.533 113.752L54.9 113.752L54.9 117.1L43.749 117.1C42.597 117.1 41.544 116.911 40.59 116.533C39.636 116.155 38.817 115.624 38.133 114.94C37.449 114.256 36.918 113.419 36.54 112.429C36.18 111.457 36 110.368 36 109.162C36 108.01 36.18 106.957 36.54 106.003C36.918 105.049 37.449 104.23 38.133 103.546C38.817 102.862 39.636 102.331 40.59 101.953C41.544 101.593 42.597 101.413 43.749 101.413L54.9 101.413ZM55.305 126.028C55.305 126.946 55.179 127.774 54.927 128.512C54.693 129.25 54.342 129.88 53.874 130.402C53.424 130.924 52.866 131.32 52.2 131.59C51.552 131.878 50.805 132.013 49.959 131.995L50.013 128.593C50.391 128.629 50.715 128.575 50.985 128.431C51.273 128.305 51.507 128.116 51.687 127.864C51.885 127.63 52.029 127.351 52.119 127.027C52.209 126.703 52.263 126.361 52.281 126.001C52.317 125.245 52.182 124.588 51.876 124.03C51.57 123.49 51.156 123.211 50.634 123.193C50.04 123.193 49.554 123.427 49.176 123.895C48.798 124.363 48.447 124.957 48.123 125.677C47.799 126.397 47.466 127.171 47.124 127.999C46.782 128.845 46.35 129.628 45.828 130.348C45.324 131.068 44.685 131.662 43.911 132.13C43.155 132.598 42.201 132.832 41.049 132.832C40.383 132.832 39.726 132.679 39.078 132.373C38.448 132.085 37.881 131.653 37.377 131.077C36.891 130.501 36.495 129.781 36.189 128.917C35.883 128.053 35.73 127.045 35.73 125.893C35.748 123.823 36.252 122.203 37.242 121.033C38.232 119.863 39.69 119.278 41.616 119.278L41.589 123.004C41.121 122.986 40.707 123.058 40.347 123.22C40.005 123.382 39.717 123.607 39.483 123.895C39.249 124.201 39.069 124.543 38.943 124.921C38.835 125.299 38.772 125.686 38.754 126.082C38.736 126.442 38.763 126.802 38.835 127.162C38.925 127.54 39.051 127.873 39.213 128.161C39.393 128.449 39.609 128.683 39.861 128.863C40.131 129.061 40.446 129.16 40.806 129.16C41.328 129.16 41.769 129.025 42.129 128.755C42.489 128.485 42.804 128.116 43.074 127.648C43.362 127.198 43.623 126.676 43.857 126.082C44.109 125.506 44.361 124.912 44.613 124.3C44.883 123.688 45.18 123.094 45.504 122.518C45.828 121.942 46.215 121.42 46.665 120.952C47.133 120.502 47.682 120.142 48.312 119.872C48.942 119.602 49.698 119.476 50.58 119.494C51.48 119.512 52.236 119.701 52.848 120.061C53.46 120.421 53.946 120.898 54.306 121.492C54.684 122.104 54.945 122.797 55.089 123.571C55.251 124.363 55.323 125.182 55.305 126.028Z" fill="#DA2E32"/>
<path d="M10.9393 206.061C11.5251 206.646 12.4749 206.646 13.0607 206.061L22.6066 196.515C23.1924 195.929 23.1924 194.979 22.6066 194.393C22.0208 193.808 21.0711 193.808 20.4853 194.393L12 202.879L3.51471 194.393C2.92892 193.808 1.97918 193.808 1.39339 194.393C0.807603 194.979 0.807603 195.929 1.39339 196.515L10.9393 206.061ZM10.5 -7L10.5 205L13.5 205L13.5 -7L10.5 -7Z" fill="#DA2E32"/>
</svg>
