<svg width="1171" height="481" viewBox="0 0 1171 481" fill="none" xmlns="http://www.w3.org/2000/svg">
<path d="M960.429 480.039V347.039L1111.43 198.039C1118.23 194.039 1111.26 193.705 1106.93 194.039L882.429 230.539L828.429 228.539C799.629 237.339 779.763 262.205 773.429 273.539C786.629 273.139 802.929 233.372 809.429 213.539C749.029 210.739 737.929 220.039 739.929 225.039C756.329 234.639 787.429 205.372 800.929 189.539C757.329 157.393 739.429 161.478 735.929 167.539C753.129 177.939 789.763 167.205 805.929 160.539C797.529 132.539 772.429 116.205 760.929 111.539C758.529 120.739 800.929 137.039 822.429 144.039C828.029 106.439 816.096 83.7055 809.429 77.0388C802.229 87.4388 831.429 122.039 846.929 138.039C859.729 133.239 867.263 92.7055 869.429 73.0388C857.429 71.4388 866.429 119.705 872.429 144.039C888.829 143.239 913.929 114.372 924.429 100.039C912.029 98.4388 895.929 139.705 889.429 160.539C909.429 165.339 943.096 154.872 957.429 149.039C950.229 144.639 914.763 170.539 897.929 184.039C918.35 203.639 943.438 204.872 953.429 203.039C942.629 196.239 907.929 202.872 891.929 207.039C863.129 231.439 837.596 226.206 828.429 220.539C803.629 202.939 811.429 176.539 818.429 165.539C831.229 147.539 854.429 150.705 864.429 154.539C912.429 180.539 872.763 219.372 846.929 235.539L725.429 317.039C721.029 319.839 723.596 320.872 725.429 321.039L926.929 363.039C936.129 367.839 939.429 365.039 939.929 363.039L950.929 351.539M950.929 480.039V351.539M950.929 351.539L1106.93 198.039L1025.93 209.539L998.429 230.539L939.929 238.039L960.429 220.539L910.929 228.539L889.429 245.039L861.929 248.039L875.429 235.539L850.429 238.039L832.929 249.656M832.929 249.656L731.429 317.039L935.429 358.539L989.929 306.039L916.929 302.539L875.429 337.039L823.429 329.039L861.929 298.039L821.429 295.039L787.429 323.039L758.429 318.039L789.929 295.039H770.929L802.929 273.539H821.429L798.429 289.539H828.429L857.429 270.039H900.429L868.429 298.039H919.929L962.429 265.539L1036.43 263.039L1074.93 225.039L998.429 235.539L964.929 261.039L907.429 263.039L932.429 242.539L891.929 248.039L861.929 265.539H832.929L850.429 252.039L832.929 249.656Z" stroke="black"/>
<path d="M1170 0V480H960.911M950.406 480H0" stroke="black"/>
</svg>
