<svg width="1214" height="619" viewBox="0 0 1214 619" fill="none" xmlns="http://www.w3.org/2000/svg">
<line x1="253.949" y1="14.0002" x2="1213.95" y2="7.00019" stroke="#184E2B" stroke-width="14"/>
<line x1="261" y1="18" x2="261" y2="275" stroke="#184E2B" stroke-width="14"/>
<rect x="234" y="269" width="54" height="26" fill="#184E2B"/>
<path d="M234.982 328.512C238.675 318.974 249.215 314.08 254.024 312.825V294H266.719V328.512C249.177 324.998 246.33 340.434 247.099 348.592C248.023 361.141 260.564 362.187 266.719 361.141C276.232 359.525 278.837 348.592 279.414 342.317C280.337 335.791 284.03 335.414 285.761 336.042C290.954 336.042 291.147 343.362 290.954 348.592C289.108 371.683 274.395 377 262.957 377C250.174 377 239.983 369.508 237.29 364.906C227.134 353.36 231.519 335.833 234.982 328.512Z" fill="#184E2B" stroke="#184E2B"/>
<line x1="256.801" y1="344.75" x2="340.21" y2="489.218" stroke="black"/>
<line x1="256.764" y1="345.306" x2="154.764" y2="477.306" stroke="black"/>
<path d="M10.3543 459.45L400.466 491.149L390.112 618.578L2.51371e-05 586.879L10.3543 459.45Z" fill="#D9D9D9"/>
<path d="M125.592 491.797C126.935 491.908 128.145 492.225 129.224 492.746C130.302 493.267 131.194 493.96 131.899 494.824C132.632 495.691 133.167 496.699 133.502 497.848C133.838 498.998 133.949 500.259 133.835 501.63C133.676 503.544 133.123 505.167 132.178 506.497C131.262 507.831 130.044 508.808 128.526 509.43L135.266 522.806L128.966 522.281L123.262 509.941L117.734 509.481L116.754 521.265L111.44 520.823L113.936 490.826L125.592 491.797ZM118.426 495.99L117.702 504.689L123.872 505.202C125.158 505.309 126.218 505.009 127.054 504.302C127.92 503.569 128.41 502.531 128.521 501.188C128.631 499.874 128.317 498.798 127.582 497.96C126.877 497.096 125.882 496.61 124.596 496.503L118.426 495.99ZM142.915 493.238L162.327 494.854L161.91 499.868L147.811 498.694L147.266 505.251L159.221 506.246L158.804 511.259L146.848 510.264L146.149 518.663L160.248 519.837L159.83 524.85L140.418 523.235L142.915 493.238ZM166.601 495.21L171.914 495.652L184.49 517.194L186.184 496.839L191.498 497.282L189.001 527.278L183.687 526.836L183.691 526.793L171.112 505.294L169.418 525.648L164.104 525.206L166.601 495.21ZM195.768 497.637L215.18 499.253L214.763 504.266L200.665 503.093L200.119 509.649L212.075 510.644L211.657 515.658L199.702 514.663L199.003 523.062L213.101 524.235L212.684 529.249L193.272 527.633L195.768 497.637ZM250.992 532.437L243.921 531.849L239.63 511.341L231.965 530.854L224.938 530.269L218.692 499.545L224.349 500.016L229.011 523.316L237.462 501.107L243.418 501.603L248.166 524.91L256.788 502.716L262.444 503.186L250.992 532.437ZM269.361 503.762L275.917 504.308L283.748 535.164L278.348 534.714L276.294 526.216L265.367 525.306L261.936 533.348L256.537 532.899L269.361 503.762ZM275.083 521.066L272.239 509.093L267.413 520.428L275.083 521.066ZM301.92 506.472C303.091 506.569 304.133 506.843 305.044 507.293C305.956 507.743 306.726 508.339 307.355 509.082C307.984 509.824 308.443 510.697 308.734 511.699C309.027 512.673 309.124 513.745 309.027 514.916C308.932 516.059 308.672 517.102 308.249 518.045C307.827 518.959 307.261 519.717 306.549 520.32C307.744 521.167 308.63 522.276 309.206 523.647C309.785 524.99 310.002 526.533 309.857 528.275C309.743 529.647 309.425 530.871 308.904 531.95C308.385 533 307.706 533.893 306.868 534.628C306.033 535.335 305.055 535.858 303.933 536.196C302.812 536.534 301.58 536.648 300.237 536.536L287.382 535.466L289.878 505.47L301.92 506.472ZM294.796 510.668L294.229 517.482L300.014 517.963C301.014 518.047 301.853 517.814 302.532 517.267C303.212 516.691 303.597 515.874 303.685 514.817C303.768 513.817 303.521 512.977 302.945 512.296C302.369 511.615 301.581 511.233 300.581 511.15L294.796 510.668ZM299.776 531.708C301.09 531.817 302.181 531.505 303.047 530.772C303.945 530.013 304.449 528.961 304.561 527.619C304.673 526.276 304.348 525.17 303.586 524.301C302.855 523.406 301.832 522.904 300.518 522.795L293.833 522.238L293.091 531.152L299.776 531.708ZM316.875 507.717L322.189 508.159L320.109 533.141L333.736 534.276L333.319 539.289L314.379 537.713L316.875 507.717ZM341.816 509.792L361.228 511.408L360.811 516.422L346.713 515.248L346.167 521.805L358.122 522.8L357.705 527.813L345.75 526.818L345.051 535.217L359.149 536.391L358.732 541.404L339.32 539.789L341.816 509.792ZM157.053 541.577L176.465 543.193L176.048 548.207L161.949 547.033L161.404 553.59L173.359 554.585L172.942 559.598L160.986 558.603L160.287 567.002L174.386 568.176L173.968 573.189L154.557 571.574L157.053 541.577ZM180.739 543.549L186.052 543.991L198.628 565.533L200.322 545.179L205.636 545.621L203.139 575.617L197.825 575.175L197.829 575.132L185.25 553.633L183.556 573.987L178.242 573.545L180.739 543.549ZM209.906 545.976L229.318 547.592L228.901 552.606L214.803 551.432L214.257 557.989L226.213 558.984L225.795 563.997L213.84 563.002L213.141 571.401L227.239 572.575L226.822 577.588L207.41 575.973L209.906 545.976ZM244.391 548.846C245.733 548.958 246.944 549.275 248.023 549.796C249.101 550.317 249.993 551.01 250.697 551.874C251.431 552.74 251.965 553.748 252.301 554.898C252.637 556.048 252.748 557.309 252.634 558.68C252.474 560.594 251.922 562.216 250.977 563.547C250.061 564.881 248.843 565.858 247.324 566.479L254.064 579.856L247.765 579.331L242.061 566.991L236.533 566.531L235.552 578.315L230.239 577.873L232.735 547.876L244.391 548.846ZM237.224 553.039L236.5 561.738L242.671 562.252C243.957 562.359 245.017 562.059 245.853 561.352C246.719 560.618 247.208 559.58 247.32 558.238C247.429 556.924 247.116 555.848 246.38 555.01C245.676 554.146 244.681 553.66 243.395 553.553L237.224 553.039ZM284.604 582.397L279.547 581.976L279.669 580.519C278.476 581.024 277.137 581.387 275.651 581.609C274.197 581.804 272.698 581.838 271.156 581.709C268.842 581.517 266.772 580.985 264.945 580.114C263.122 579.214 261.595 578.037 260.364 576.583C259.133 575.128 258.224 573.427 257.638 571.48C257.053 569.533 256.855 567.416 257.045 565.131C257.24 562.788 257.788 560.691 258.69 558.839C259.623 556.96 260.833 555.393 262.318 554.136C263.834 552.852 265.582 551.905 267.56 551.292C269.567 550.683 271.727 550.474 274.041 550.667C276.784 550.895 279.154 551.625 281.151 552.855C283.149 554.086 284.726 555.698 285.883 557.693L281.188 561.229C280.352 559.865 279.325 558.73 278.106 557.823C276.887 556.916 275.206 556.373 273.063 556.195C271.692 556.081 270.415 556.219 269.232 556.609C268.051 556.971 267.009 557.561 266.107 558.377C265.208 559.165 264.477 560.169 263.915 561.388C263.353 562.607 263.006 564.016 262.873 565.616C262.735 567.273 262.886 568.738 263.327 570.012C263.796 571.288 264.454 572.364 265.302 573.24C266.152 574.087 267.132 574.758 268.241 575.254C269.353 575.72 270.509 576.003 271.708 576.103C273.137 576.222 274.37 576.267 275.408 576.238C276.477 576.183 277.359 575.955 278.054 575.552C278.778 575.152 279.333 574.523 279.721 573.663C280.138 572.806 280.408 571.635 280.532 570.149L274.018 569.607L274.435 564.594L286.005 565.556L284.604 582.397ZM297.159 583.442L298.283 569.944L290.957 552.722L296.827 553.211L301.417 564.423L307.497 554.099L313.282 554.58L303.596 570.386L302.473 583.884L297.159 583.442Z" fill="black"/>
</svg>
