<svg width="1125" height="582" viewBox="0 0 1125 582" fill="none" xmlns="http://www.w3.org/2000/svg">
<line x1="0.94896" y1="14.0002" x2="960.949" y2="7.00019" stroke="#184E2B" stroke-width="14"/>
<line x1="952.433" y1="351.75" x2="1035.84" y2="496.218" stroke="black"/>
<line x1="954" y1="14" x2="954" y2="271" stroke="#184E2B" stroke-width="14"/>
<rect x="927" y="265" width="54" height="26" fill="#184E2B"/>
<path d="M927.982 324.512C931.675 314.974 942.215 310.08 947.024 308.825V290H959.719V324.512C942.177 320.998 939.33 336.434 940.099 344.592C941.023 357.141 953.564 358.187 959.719 357.141C969.232 355.525 971.837 344.592 972.414 338.317C973.337 331.791 977.03 331.414 978.761 332.042C983.954 332.042 984.147 339.362 983.954 344.592C982.108 367.683 967.395 373 955.957 373C943.174 373 932.983 365.508 930.29 360.906C920.134 349.36 924.519 331.833 927.982 324.512Z" fill="#184E2B" stroke="#184E2B"/>
<line x1="952.396" y1="352.306" x2="850.396" y2="484.306" stroke="black"/>
<g filter="url(#filter0_d_0_1)">
<rect x="758.73" y="470.736" width="362.607" height="73.9218" transform="rotate(4.64542 758.73 470.736)" fill="#D9D9D9"/>
</g>
<path d="M772.358 509.502C772.235 510.987 772.35 512.363 772.705 513.63C773.06 514.896 773.629 516.008 774.413 516.965C775.196 517.922 776.182 518.694 777.37 519.282C778.558 519.87 779.937 520.229 781.508 520.36C783.394 520.517 785.064 520.325 786.518 519.785C787.975 519.216 789.199 518.339 790.189 517.156L794.235 520.902C792.738 522.647 790.875 523.944 788.647 524.795C786.45 525.618 783.966 525.915 781.195 525.684C778.881 525.492 776.796 524.959 774.942 524.085C773.118 523.186 771.591 522.009 770.36 520.554C769.129 519.1 768.221 517.399 767.635 515.452C767.049 513.504 766.851 511.388 767.041 509.102C767.236 506.76 767.785 504.662 768.687 502.81C769.62 500.932 770.829 499.364 772.314 498.107C773.831 496.824 775.578 495.876 777.556 495.264C779.563 494.654 781.723 494.446 784.037 494.638C786.78 494.867 789.15 495.596 791.147 496.827C793.145 498.057 794.722 499.67 795.879 501.665L791.32 504.608C790.567 503.279 789.52 502.214 788.177 501.412C786.837 500.581 785.224 500.087 783.338 499.93C781.795 499.802 780.374 499.943 779.074 500.352C777.803 500.764 776.686 501.405 775.722 502.274C774.76 503.114 773.983 504.157 773.39 505.402C772.828 506.621 772.484 507.988 772.358 509.502ZM798.929 511.756C799.124 509.414 799.673 507.316 800.575 505.464C801.508 503.586 802.717 502.018 804.202 500.761C805.719 499.478 807.466 498.53 809.444 497.918C811.422 497.306 813.568 497.096 815.882 497.289C818.196 497.481 820.25 498.04 822.042 498.966C823.864 499.895 825.374 501.099 826.574 502.58C827.803 504.063 828.695 505.791 829.25 507.764C829.804 509.738 829.987 511.867 829.797 514.153C829.602 516.495 829.053 518.593 828.151 520.445C827.251 522.269 826.074 523.796 824.62 525.027C823.165 526.258 821.45 527.165 819.474 527.749C817.527 528.334 815.396 528.531 813.082 528.338C810.768 528.146 808.684 527.613 806.83 526.739C805.006 525.84 803.479 524.663 802.248 523.208C801.017 521.754 800.108 520.053 799.522 518.105C798.937 516.158 798.739 514.042 798.929 511.756ZM815.354 502.595C813.812 502.467 812.391 502.607 811.091 503.017C809.793 503.398 808.65 504.008 807.659 504.846C806.7 505.658 805.924 506.686 805.331 507.931C804.739 509.176 804.377 510.585 804.246 512.156C804.118 513.698 804.231 515.103 804.586 516.369C804.969 517.638 805.553 518.751 806.336 519.708C807.15 520.639 808.166 521.399 809.382 521.99C810.601 522.551 811.982 522.896 813.525 523.025C815.067 523.153 816.486 523.041 817.781 522.689C819.079 522.308 820.193 521.71 821.123 520.896C822.083 520.084 822.843 519.068 823.405 517.849C823.995 516.633 824.355 515.253 824.483 513.711C824.611 512.168 824.499 510.749 824.147 509.454C823.797 508.13 823.216 506.989 822.404 506.03C821.623 505.044 820.638 504.257 819.45 503.67C818.262 503.082 816.897 502.724 815.354 502.595ZM835.951 499.606L841.264 500.048L853.84 521.591L855.534 501.236L860.848 501.678L858.351 531.675L853.038 531.232L853.041 531.189L840.462 509.69L838.768 530.045L833.454 529.602L835.951 499.606ZM875.071 502.215C876.528 502.336 877.825 502.645 878.963 503.143C880.104 503.612 881.057 504.252 881.824 505.064C882.593 505.847 883.148 506.785 883.488 507.877C883.86 508.944 883.975 510.147 883.835 511.488L878.443 510.953C878.55 510.357 878.507 509.836 878.314 509.388C878.152 508.915 877.883 508.518 877.507 508.199C877.162 507.854 876.738 507.589 876.236 507.403C875.733 507.218 875.198 507.087 874.629 507.011C873.433 506.854 872.373 506.981 871.447 507.393C870.549 507.807 870.052 508.428 869.954 509.254C869.876 510.196 870.183 510.999 870.876 511.66C871.569 512.322 872.465 512.958 873.565 513.567C874.665 514.176 875.849 514.807 877.118 515.459C878.416 516.114 879.602 516.903 880.675 517.826C881.751 518.721 882.61 519.814 883.25 521.104C883.893 522.366 884.139 523.911 883.986 525.739C883.898 526.796 883.569 527.819 882.998 528.807C882.457 529.769 881.697 530.611 880.716 531.335C879.738 532.031 878.543 532.564 877.131 532.935C875.719 533.307 874.099 533.417 872.271 533.265C868.988 532.963 866.483 531.949 864.757 530.223C863.031 528.497 862.295 526.106 862.55 523.049L868.46 523.584C868.369 524.324 868.429 524.991 868.638 525.584C868.85 526.148 869.169 526.635 869.596 527.044C870.05 527.456 870.569 527.787 871.153 528.037C871.738 528.258 872.344 528.409 872.97 528.49C873.539 528.566 874.114 528.571 874.695 528.504C875.307 528.411 875.852 528.255 876.331 528.036C876.811 527.789 877.211 527.477 877.53 527.1C877.88 526.698 878.079 526.211 878.126 525.64C878.195 524.811 878.039 524.094 877.658 523.487C877.277 522.88 876.733 522.331 876.026 521.841C875.35 521.324 874.556 520.841 873.644 520.391C872.763 519.915 871.854 519.437 870.916 518.956C869.98 518.446 869.077 517.897 868.205 517.306C867.334 516.716 866.557 516.033 865.873 515.257C865.221 514.455 864.722 513.536 864.377 512.5C864.032 511.465 863.932 510.248 864.077 508.851C864.224 507.425 864.624 506.25 865.276 505.326C865.928 504.402 866.749 503.694 867.74 503.201C868.761 502.682 869.895 502.359 871.143 502.233C872.421 502.081 873.731 502.074 875.071 502.215ZM897.502 509.777L888.889 509.06L889.306 504.047L911.418 505.887L911.001 510.901L902.816 510.22L900.737 535.202L895.423 534.76L897.502 509.777ZM928.227 507.286C929.569 507.398 930.78 507.714 931.858 508.235C932.937 508.757 933.828 509.449 934.533 510.314C935.267 511.18 935.801 512.188 936.137 513.338C936.473 514.488 936.584 515.748 936.469 517.12C936.31 519.034 935.758 520.656 934.813 521.987C933.897 523.32 932.679 524.298 931.16 524.919L937.9 538.295L931.601 537.771L925.897 525.43L920.369 524.97L919.388 536.754L914.074 536.312L916.571 506.316L928.227 507.286ZM921.06 511.479L920.336 520.178L926.507 520.692C927.792 520.799 928.853 520.498 929.688 519.791C930.555 519.058 931.044 518.02 931.156 516.677C931.265 515.363 930.952 514.287 930.216 513.449C929.512 512.585 928.516 512.1 927.231 511.993L921.06 511.479ZM945.549 508.728L950.863 509.17L949.362 527.211C949.183 529.353 949.683 531.121 950.862 532.513C952.069 533.908 953.773 534.697 955.972 534.88C958.115 535.059 959.882 534.559 961.275 533.38C962.668 532.201 963.453 530.541 963.631 528.398L965.133 510.358L970.446 510.8L968.973 528.498C968.821 530.326 968.382 531.972 967.656 533.436C966.93 534.901 965.979 536.13 964.803 537.126C963.628 538.121 962.229 538.853 960.608 539.322C959.018 539.765 957.265 539.907 955.351 539.748C953.523 539.595 951.876 539.171 950.409 538.473C948.945 537.747 947.715 536.796 946.72 535.62C945.725 534.445 944.99 533.075 944.516 531.511C944.071 529.949 943.924 528.254 944.077 526.426L945.549 508.728ZM977.704 526.592C977.58 528.078 977.696 529.454 978.051 530.72C978.406 531.987 978.975 533.098 979.758 534.055C980.542 535.012 981.527 535.785 982.715 536.373C983.903 536.96 985.283 537.32 986.854 537.451C988.74 537.607 990.41 537.416 991.864 536.875C993.321 536.306 994.544 535.43 995.535 534.246L999.581 537.992C998.084 539.737 996.221 541.035 993.993 541.885C991.796 542.709 989.311 543.005 986.54 542.775C984.226 542.582 982.142 542.049 980.287 541.176C978.464 540.276 976.937 539.099 975.706 537.645C974.475 536.19 973.566 534.489 972.98 532.542C972.395 530.595 972.197 528.478 972.387 526.193C972.582 523.85 973.13 521.753 974.032 519.901C974.965 518.022 976.175 516.454 977.66 515.197C979.176 513.914 980.924 512.966 982.902 512.354C984.909 511.745 987.069 511.536 989.383 511.729C992.126 511.957 994.496 512.686 996.493 513.917C998.491 515.147 1000.07 516.76 1001.23 518.755L996.665 521.698C995.913 520.37 994.865 519.304 993.523 518.502C992.182 517.672 990.569 517.178 988.684 517.021C987.141 516.893 985.72 517.033 984.42 517.443C983.149 517.855 982.031 518.495 981.067 519.364C980.106 520.205 979.328 521.248 978.736 522.493C978.174 523.712 977.83 525.078 977.704 526.592ZM1013.09 519.397L1004.47 518.68L1004.89 513.666L1027 515.507L1026.58 520.52L1018.4 519.839L1016.32 544.822L1011.01 544.38L1013.09 519.397ZM1033.01 516.007L1038.32 516.449L1035.83 546.445L1030.51 546.003L1033.01 516.007ZM1040.26 531.842C1040.46 529.499 1041.01 527.402 1041.91 525.55C1042.84 523.671 1044.05 522.104 1045.54 520.847C1047.05 519.563 1048.8 518.616 1050.78 518.003C1052.76 517.391 1054.9 517.182 1057.22 517.374C1059.53 517.567 1061.58 518.126 1063.38 519.052C1065.2 519.98 1066.71 521.185 1067.91 522.665C1069.14 524.148 1070.03 525.877 1070.58 527.85C1071.14 529.824 1071.32 531.953 1071.13 534.238C1070.94 536.581 1070.39 538.678 1069.49 540.531C1068.59 542.354 1067.41 543.882 1065.95 545.113C1064.5 546.344 1062.78 547.251 1060.81 547.834C1058.86 548.42 1056.73 548.617 1054.42 548.424C1052.1 548.231 1050.02 547.698 1048.16 546.825C1046.34 545.925 1044.81 544.748 1043.58 543.294C1042.35 541.839 1041.44 540.138 1040.86 538.191C1040.27 536.244 1040.07 534.127 1040.26 531.842ZM1056.69 522.681C1055.15 522.552 1053.73 522.693 1052.43 523.103C1051.13 523.484 1049.98 524.093 1048.99 524.931C1048.03 525.743 1047.26 526.772 1046.67 528.017C1046.07 529.262 1045.71 530.67 1045.58 532.241C1045.45 533.784 1045.57 535.189 1045.92 536.455C1046.3 537.724 1046.89 538.837 1047.67 539.794C1048.48 540.725 1049.5 541.485 1050.72 542.075C1051.94 542.637 1053.32 542.982 1054.86 543.11C1056.4 543.239 1057.82 543.127 1059.12 542.774C1060.41 542.393 1061.53 541.796 1062.46 540.981C1063.42 540.169 1064.18 539.154 1064.74 537.935C1065.33 536.719 1065.69 535.339 1065.82 533.796C1065.95 532.254 1065.83 530.835 1065.48 529.54C1065.13 528.216 1064.55 527.075 1063.74 526.115C1062.96 525.13 1061.97 524.343 1060.79 523.755C1059.6 523.167 1058.23 522.809 1056.69 522.681ZM1077.29 519.692L1082.6 520.134L1095.17 541.676L1096.87 521.322L1102.18 521.764L1099.69 551.76L1094.37 551.318L1094.38 551.275L1081.8 529.776L1080.1 550.13L1074.79 549.688L1077.29 519.692Z" fill="black"/>
<defs>
<filter id="filter0_d_0_1" x="748.743" y="470.736" width="375.403" height="111.046" filterUnits="userSpaceOnUse" color-interpolation-filters="sRGB">
<feFlood flood-opacity="0" result="BackgroundImageFix"/>
<feColorMatrix in="SourceAlpha" type="matrix" values="0 0 0 0 0 0 0 0 0 0 0 0 0 0 0 0 0 0 127 0" result="hardAlpha"/>
<feOffset dy="4"/>
<feGaussianBlur stdDeviation="2"/>
<feComposite in2="hardAlpha" operator="out"/>
<feColorMatrix type="matrix" values="0 0 0 0 0 0 0 0 0 0 0 0 0 0 0 0 0 0 0.25 0"/>
<feBlend mode="normal" in2="BackgroundImageFix" result="effect1_dropShadow_0_1"/>
<feBlend mode="normal" in="SourceGraphic" in2="effect1_dropShadow_0_1" result="shape"/>
</filter>
</defs>
</svg>
