<svg width="1096" height="594" viewBox="0 0 1096 594" fill="none" xmlns="http://www.w3.org/2000/svg">
<line x1="0.94896" y1="14.0002" x2="960.949" y2="7.00019" stroke="#184E2B" stroke-width="14"/>
<line x1="953.433" y1="348.75" x2="1036.84" y2="493.218" stroke="black"/>
<line x1="952" y1="14" x2="952" y2="271" stroke="#184E2B" stroke-width="14"/>
<rect x="925" y="265" width="54" height="26" fill="#184E2B"/>
<path d="M925.982 324.512C929.675 314.974 940.215 310.08 945.024 308.825V290H957.719V324.512C940.177 320.998 937.33 336.434 938.099 344.592C939.023 357.141 951.564 358.187 957.719 357.141C967.232 355.525 969.837 344.592 970.414 338.317C971.337 331.791 975.03 331.414 976.761 332.042C981.954 332.042 982.147 339.362 981.954 344.592C980.108 367.683 965.395 373 953.957 373C941.174 373 930.983 365.508 928.29 360.906C918.134 349.36 922.519 331.833 925.982 324.512Z" fill="#184E2B" stroke="#184E2B"/>
<line x1="953.396" y1="344.306" x2="851.396" y2="476.306" stroke="black"/>
<rect x="733.59" y="434" width="362.607" height="130.763" transform="rotate(4.64542 733.59 434)" fill="#D9D9D9"/>
<path d="M807.741 460.734C809.083 460.846 810.294 461.163 811.372 461.684C812.451 462.205 813.342 462.898 814.047 463.762C814.78 464.628 815.315 465.636 815.651 466.786C815.987 467.936 816.097 469.197 815.983 470.568C815.869 471.939 815.55 473.178 815.027 474.285C814.505 475.364 813.812 476.27 812.945 477.003C812.11 477.71 811.116 478.246 809.964 478.61C808.814 478.946 807.567 479.058 806.225 478.946L799.883 478.418L798.902 490.203L793.588 489.761L796.085 459.764L807.741 460.734ZM801.003 464.963L800.279 473.662L805.249 474.076C805.906 474.13 806.54 474.125 807.149 474.061C807.761 473.968 808.31 473.769 808.795 473.465C809.309 473.162 809.732 472.752 810.063 472.233C810.396 471.685 810.598 470.983 810.67 470.126C810.741 469.269 810.656 468.557 810.416 467.99C810.178 467.395 809.829 466.92 809.369 466.565C808.941 466.185 808.431 465.912 807.841 465.748C807.253 465.555 806.63 465.431 805.973 465.377L801.003 464.963ZM821.883 461.911L827.197 462.354L825.117 487.336L838.744 488.47L838.327 493.484L819.386 491.908L821.883 461.911ZM855.009 464.668L861.565 465.214L869.396 496.07L863.997 495.62L861.942 487.122L851.015 486.212L847.584 494.254L842.185 493.805L855.009 464.668ZM860.731 481.973L857.888 469.999L853.061 481.334L860.731 481.973ZM875.741 466.394L881.054 466.836L893.63 488.378L895.324 468.024L900.638 468.466L898.141 498.462L892.827 498.02L892.831 497.977L880.252 476.478L878.558 496.832L873.244 496.39L875.741 466.394ZM914.82 474.695L906.207 473.978L906.624 468.964L928.736 470.804L928.318 475.818L920.134 475.137L918.054 500.12L912.741 499.677L914.82 474.695ZM952.346 472.769L958.902 473.315L966.733 504.171L961.334 503.722L959.28 495.223L948.352 494.313L944.922 502.356L939.522 501.906L952.346 472.769ZM958.069 490.074L955.225 478.101L950.398 489.435L958.069 490.074ZM973.078 474.495L978.392 474.937L990.967 496.479L992.661 476.125L997.975 476.567L995.478 506.563L990.165 506.121L990.168 506.078L977.589 484.579L975.895 504.933L970.581 504.491L973.078 474.495ZM1013.17 477.832C1015.4 478.017 1017.4 478.543 1019.17 479.41C1020.94 480.276 1022.41 481.42 1023.59 482.841C1024.79 484.236 1025.68 485.877 1026.24 487.765C1026.8 489.653 1026.99 491.711 1026.8 493.939C1026.61 496.253 1026.08 498.309 1025.21 500.106C1024.34 501.904 1023.2 503.405 1021.77 504.61C1020.38 505.817 1018.74 506.701 1016.85 507.263C1014.96 507.825 1012.9 508.014 1010.68 507.828L999.749 506.919L1002.25 476.922L1013.17 477.832ZM1007.14 482.378L1005.48 502.347L1010.79 502.79C1012.28 502.913 1013.64 502.796 1014.88 502.439C1016.15 502.056 1017.25 501.457 1018.18 500.643C1019.11 499.828 1019.85 498.826 1020.41 497.636C1021 496.448 1021.36 495.082 1021.49 493.54C1021.61 492.054 1021.48 490.691 1021.09 489.451C1020.74 488.185 1020.17 487.087 1019.38 486.159C1018.6 485.202 1017.61 484.444 1016.42 483.884C1015.26 483.299 1013.94 482.944 1012.46 482.821L1007.14 482.378ZM741.027 502.344L760.439 503.96L760.022 508.974L745.924 507.8L745.378 514.357L757.334 515.352L756.916 520.365L744.961 519.37L744.262 527.769L758.36 528.943L757.943 533.956L738.531 532.341L741.027 502.344ZM762.383 519.353C762.578 517.011 763.126 514.913 764.028 513.061C764.961 511.183 766.17 509.615 767.656 508.358C769.172 507.074 770.919 506.127 772.898 505.515C774.876 504.903 777.022 504.693 779.336 504.886C781.65 505.078 783.703 505.637 785.496 506.563C787.317 507.491 788.828 508.696 790.028 510.177C791.257 511.66 792.148 513.388 792.703 515.361C793.258 517.335 793.44 519.464 793.25 521.75C792.989 524.892 792.105 527.566 790.598 529.77C789.12 531.977 787.171 533.613 784.753 534.677L788.981 541.933L782.168 541.366L779.121 535.978C778.688 535.999 778.256 536.007 777.825 535.999C777.423 535.995 776.993 535.973 776.536 535.935C774.222 535.743 772.138 535.21 770.283 534.336C768.459 533.436 766.932 532.259 765.701 530.805C764.47 529.351 763.562 527.65 762.976 525.702C762.39 523.755 762.192 521.639 762.383 519.353ZM778.808 510.192C777.265 510.064 775.844 510.204 774.544 510.614C773.247 510.995 772.103 511.604 771.113 512.443C770.154 513.254 769.378 514.283 768.785 515.528C768.192 516.773 767.831 518.181 767.7 519.753C767.455 522.695 768.059 525.119 769.511 527.023C770.994 528.901 773.156 530.059 775.996 530.497L773.625 526.33L780.181 526.875L781.992 530.003C783.713 529.37 785.081 528.319 786.095 526.85C787.139 525.355 787.753 523.507 787.937 521.307C788.065 519.765 787.953 518.346 787.6 517.051C787.25 515.727 786.669 514.586 785.857 513.627C785.077 512.641 784.092 511.854 782.904 511.266C781.716 510.679 780.351 510.32 778.808 510.192ZM799.404 507.203L804.718 507.645L803.217 525.686C803.038 527.828 803.538 529.596 804.717 530.989C805.924 532.384 807.628 533.173 809.827 533.356C811.97 533.534 813.737 533.034 815.13 531.855C816.523 530.677 817.308 529.016 817.486 526.873L818.988 508.833L824.301 509.275L822.828 526.973C822.676 528.801 822.237 530.448 821.511 531.912C820.785 533.376 819.834 534.606 818.658 535.601C817.483 536.596 816.084 537.328 814.463 537.797C812.873 538.24 811.12 538.382 809.206 538.223C807.378 538.071 805.731 537.646 804.264 536.949C802.8 536.223 801.57 535.272 800.575 534.096C799.58 532.92 798.845 531.55 798.371 529.986C797.926 528.424 797.779 526.729 797.931 524.901L799.404 507.203ZM828.572 509.631L833.886 510.073L831.389 540.069L826.076 539.627L828.572 509.631ZM848.954 511.327C850.297 511.439 851.507 511.755 852.586 512.276C853.664 512.798 854.556 513.49 855.261 514.354C855.994 515.221 856.528 516.229 856.864 517.379C857.2 518.529 857.311 519.789 857.197 521.16C857.083 522.532 856.764 523.771 856.24 524.878C855.719 525.956 855.025 526.862 854.158 527.596C853.323 528.303 852.329 528.838 851.177 529.203C850.027 529.539 848.781 529.651 847.438 529.539L841.096 529.011L840.115 540.795L834.802 540.353L837.298 510.357L848.954 511.327ZM842.216 515.556L841.492 524.255L846.463 524.668C847.12 524.723 847.753 524.718 848.363 524.654C848.974 524.561 849.523 524.362 850.009 524.057C850.523 523.755 850.945 523.344 851.276 522.825C851.609 522.278 851.812 521.575 851.883 520.718C851.954 519.861 851.87 519.149 851.629 518.583C851.391 517.988 851.042 517.513 850.583 517.158C850.154 516.777 849.645 516.505 849.054 516.34C848.466 516.148 847.844 516.024 847.187 515.969L842.216 515.556ZM887.777 525.475L877.68 541.031L874.594 540.774L866.858 523.82L865.271 542.889L859.957 542.447L862.454 512.45L868.024 512.914L876.897 532.81L888.422 514.612L894.035 515.079L891.539 545.075L886.225 544.633L887.777 525.475ZM897.662 515.381L917.074 516.996L916.657 522.01L902.559 520.837L902.013 527.393L913.969 528.388L913.551 533.402L901.596 532.407L900.897 540.806L914.995 541.979L914.578 546.993L895.166 545.377L897.662 515.381ZM921.348 517.352L926.662 517.794L939.237 539.337L940.931 518.982L946.245 519.424L943.748 549.42L938.435 548.978L938.438 548.935L925.859 527.436L924.165 547.791L918.852 547.348L921.348 517.352ZM960.427 525.653L951.814 524.936L952.232 519.922L974.343 521.763L973.926 526.776L965.741 526.095L963.662 551.078L958.348 550.636L960.427 525.653ZM989.769 523.047L995.211 523.499L994.244 535.112L1007.49 536.214L1008.45 524.602L1013.89 525.054L1011.4 555.051L1005.96 554.598L1007.08 541.099L993.838 539.997L992.714 553.496L987.272 553.043L989.769 523.047ZM1018.18 525.411L1023.5 525.854L1021 555.85L1015.69 555.408L1018.18 525.411ZM1038.56 527.108C1039.91 527.219 1041.12 527.536 1042.2 528.057C1043.28 528.578 1044.17 529.271 1044.87 530.135C1045.6 531.002 1046.14 532.01 1046.48 533.16C1046.81 534.309 1046.92 535.57 1046.81 536.941C1046.65 538.855 1046.1 540.478 1045.15 541.809C1044.23 543.142 1043.02 544.119 1041.5 544.741L1048.24 558.117L1041.94 557.593L1036.24 545.252L1030.71 544.792L1029.73 556.576L1024.41 556.134L1026.91 526.138L1038.56 527.108ZM1031.4 531.301L1030.67 540L1036.85 540.513C1038.13 540.62 1039.19 540.32 1040.03 539.613C1040.89 538.88 1041.38 537.842 1041.49 536.499C1041.6 535.185 1041.29 534.109 1040.55 533.271C1039.85 532.407 1038.85 531.921 1037.57 531.814L1031.4 531.301ZM1055.89 528.549L1075.3 530.165L1074.88 535.179L1060.78 534.005L1060.24 540.562L1072.19 541.557L1071.78 546.57L1059.82 545.575L1059.12 553.974L1073.22 555.148L1072.8 560.161L1053.39 558.546L1055.89 528.549Z" fill="black"/>
</svg>
