<svg width="1172" height="624" viewBox="0 0 1172 624" fill="none" xmlns="http://www.w3.org/2000/svg">
<line x1="211.949" y1="14.0002" x2="1171.95" y2="7.00019" stroke="#184E2B" stroke-width="14"/>
<line x1="219" y1="14" x2="219" y2="271" stroke="#184E2B" stroke-width="14"/>
<rect x="192" y="265" width="54" height="26" fill="#184E2B"/>
<path d="M192.982 324.512C196.675 314.974 207.215 310.08 212.024 308.825V290H224.719V324.512C207.177 320.998 204.33 336.434 205.099 344.592C206.023 357.141 218.564 358.187 224.719 357.141C234.232 355.525 236.837 344.592 237.414 338.317C238.337 331.791 242.03 331.414 243.761 332.042C248.954 332.042 249.147 339.362 248.954 344.592C247.108 367.683 232.395 373 220.957 373C208.174 373 197.983 365.508 195.29 360.906C185.134 349.36 189.519 331.833 192.982 324.512Z" fill="#184E2B" stroke="#184E2B"/>
<line x1="224.433" y1="332.75" x2="316.218" y2="491.726" stroke="black"/>
<rect x="10.5352" y="462" width="399.022" height="130.081" transform="rotate(4.64542 10.5352 462)" fill="#D9D9D9"/>
<path d="M131.974 490.078C133.317 490.19 134.528 490.506 135.606 491.028C136.685 491.549 137.576 492.241 138.281 493.106C139.014 493.972 139.549 494.98 139.885 496.13C140.22 497.28 140.331 498.54 140.217 499.912C140.103 501.283 139.784 502.522 139.261 503.629C138.739 504.708 138.045 505.613 137.179 506.347C136.343 507.054 135.35 507.59 134.197 507.954C133.048 508.29 131.801 508.402 130.459 508.29L124.117 507.762L123.136 519.546L117.822 519.104L120.319 489.108L131.974 490.078ZM125.236 494.307L124.512 503.006L129.483 503.419C130.14 503.474 130.774 503.469 131.383 503.405C131.995 503.312 132.544 503.113 133.029 502.808C133.543 502.506 133.966 502.095 134.297 501.576C134.63 501.029 134.832 500.326 134.904 499.469C134.975 498.612 134.89 497.9 134.65 497.334C134.412 496.739 134.063 496.264 133.603 495.909C133.175 495.528 132.665 495.256 132.075 495.092C131.487 494.899 130.864 494.775 130.207 494.72L125.236 494.307ZM156.915 492.154C158.258 492.266 159.469 492.582 160.547 493.103C161.626 493.625 162.517 494.317 163.222 495.181C163.955 496.048 164.49 497.056 164.826 498.206C165.162 499.356 165.272 500.616 165.158 501.987C164.999 503.901 164.447 505.524 163.502 506.855C162.585 508.188 161.368 509.165 159.849 509.787L166.589 523.163L160.29 522.639L154.586 510.298L149.058 509.838L148.077 521.622L142.763 521.18L145.26 491.184L156.915 492.154ZM149.749 496.347L149.025 505.046L155.196 505.559C156.481 505.666 157.542 505.366 158.377 504.659C159.244 503.926 159.733 502.888 159.845 501.545C159.954 500.231 159.641 499.155 158.905 498.317C158.2 497.453 157.205 496.967 155.92 496.86L149.749 496.347ZM169.355 508.421C169.55 506.078 170.099 503.981 171.001 502.128C171.934 500.25 173.143 498.682 174.629 497.425C176.145 496.142 177.892 495.194 179.87 494.582C181.849 493.97 183.995 493.76 186.309 493.953C188.623 494.145 190.676 494.705 192.469 495.631C194.29 496.559 195.801 497.763 197.001 499.244C198.229 500.727 199.121 502.455 199.676 504.429C200.231 506.402 200.413 508.532 200.223 510.817C200.028 513.16 199.48 515.257 198.577 517.109C197.678 518.933 196.501 520.46 195.046 521.691C193.592 522.922 191.877 523.829 189.901 524.413C187.953 524.999 185.823 525.195 183.509 525.003C181.195 524.81 179.111 524.277 177.256 523.404C175.432 522.504 173.905 521.327 172.674 519.872C171.443 518.418 170.535 516.717 169.949 514.77C169.363 512.822 169.165 510.706 169.355 508.421ZM185.781 499.259C184.238 499.131 182.817 499.272 181.517 499.681C180.22 500.062 179.076 500.672 178.086 501.51C177.126 502.322 176.35 503.35 175.758 504.595C175.165 505.841 174.803 507.249 174.673 508.82C174.544 510.363 174.657 511.767 175.012 513.034C175.396 514.303 175.979 515.415 176.762 516.372C177.577 517.303 178.592 518.064 179.809 518.654C181.028 519.216 182.408 519.561 183.951 519.689C185.494 519.817 186.913 519.705 188.208 519.353C189.505 518.972 190.619 518.374 191.55 517.56C192.509 516.748 193.27 515.733 193.831 514.514C194.422 513.297 194.781 511.917 194.909 510.375C195.038 508.832 194.926 507.413 194.573 506.118C194.223 504.795 193.642 503.653 192.83 502.694C192.049 501.708 191.065 500.922 189.877 500.334C188.689 499.746 187.324 499.388 185.781 499.259ZM212.129 526.953C210.301 526.801 208.82 526.448 207.687 525.893C206.554 525.339 205.68 524.604 205.066 523.69C204.454 522.747 204.058 521.621 203.88 520.312C203.732 518.977 203.727 517.48 203.865 515.823L208.886 516.673C208.679 518.468 208.871 519.793 209.461 520.647C210.054 521.473 211.079 521.947 212.536 522.068C213.821 522.175 214.784 521.838 215.425 521.057C216.094 520.279 216.492 519.118 216.621 517.575L217.894 502.277L211.552 501.749L211.969 496.736L223.625 497.706L221.899 518.446C221.782 519.846 221.491 521.102 221.024 522.214C220.589 523.299 219.965 524.225 219.153 524.992C218.344 525.73 217.349 526.28 216.168 526.642C215.018 526.978 213.672 527.082 212.129 526.953ZM227.929 498.064L247.341 499.68L246.923 504.693L232.825 503.52L232.279 510.076L244.235 511.071L243.818 516.085L231.862 515.09L231.163 523.489L245.261 524.662L244.844 529.676L225.432 528.06L227.929 498.064ZM254.601 515.472C254.478 516.958 254.593 518.334 254.948 519.6C255.303 520.867 255.872 521.978 256.655 522.935C257.439 523.892 258.424 524.665 259.612 525.253C260.8 525.84 262.18 526.2 263.751 526.331C265.637 526.488 267.307 526.296 268.761 525.755C270.218 525.186 271.442 524.31 272.432 523.127L276.478 526.872C274.981 528.617 273.118 529.915 270.89 530.765C268.693 531.589 266.209 531.886 263.438 531.655C261.124 531.462 259.039 530.929 257.185 530.056C255.361 529.156 253.834 527.979 252.603 526.525C251.372 525.07 250.463 523.369 249.878 521.422C249.292 519.475 249.094 517.358 249.284 515.073C249.479 512.73 250.028 510.633 250.93 508.781C251.863 506.902 253.072 505.335 254.557 504.077C256.074 502.794 257.821 501.846 259.799 501.234C261.806 500.625 263.966 500.416 266.28 500.609C269.023 500.837 271.393 501.566 273.39 502.797C275.388 504.028 276.965 505.64 278.122 507.635L273.563 510.578C272.81 509.25 271.763 508.185 270.42 507.382C269.079 506.552 267.466 506.058 265.581 505.901C264.038 505.773 262.617 505.913 261.317 506.323C260.046 506.735 258.928 507.375 257.964 508.244C257.003 509.085 256.226 510.128 255.633 511.373C255.071 512.592 254.727 513.958 254.601 515.472ZM289.982 508.277L281.369 507.56L281.786 502.546L303.898 504.387L303.481 509.4L295.296 508.719L293.217 533.702L287.903 533.26L289.982 508.277ZM88.9579 544.577L78.8609 560.133L75.7755 559.876L68.039 542.922L66.452 561.991L61.1383 561.549L63.6349 531.553L69.2056 532.016L78.0779 551.913L89.6031 533.714L95.2167 534.181L92.7202 564.178L87.4065 563.735L88.9579 544.577ZM107.028 535.164L113.585 535.71L121.415 566.566L116.016 566.116L113.962 557.618L103.035 556.708L99.6039 564.75L94.2046 564.301L107.028 535.164ZM112.751 552.469L109.907 540.495L105.08 551.83L112.751 552.469ZM127.76 536.89L133.074 537.332L145.65 558.874L147.344 538.52L152.657 538.962L150.161 568.958L144.847 568.516L144.851 568.473L132.271 546.974L130.577 567.328L125.264 566.886L127.76 536.89ZM165.113 539.999L171.669 540.544L179.5 571.4L174.1 570.951L172.046 562.452L161.119 561.543L157.688 569.585L152.289 569.135L165.113 539.999ZM170.835 557.303L167.991 545.33L163.165 556.664L170.835 557.303ZM211.288 574.046L206.231 573.625L206.352 572.168C205.16 572.673 203.821 573.036 202.335 573.257C200.881 573.453 199.382 573.486 197.839 573.358C195.525 573.165 193.455 572.633 191.629 571.762C189.806 570.863 188.278 569.686 187.047 568.231C185.816 566.777 184.908 565.076 184.322 563.128C183.736 561.181 183.538 559.065 183.729 556.779C183.924 554.437 184.472 552.339 185.374 550.487C186.307 548.609 187.516 547.041 189.002 545.784C190.518 544.501 192.265 543.553 194.244 542.941C196.25 542.331 198.411 542.123 200.725 542.315C203.467 542.543 205.837 543.273 207.835 544.503C209.832 545.734 211.41 547.347 212.567 549.342L207.871 552.877C207.036 551.513 206.008 550.378 204.789 549.471C203.57 548.564 201.89 548.021 199.747 547.843C198.376 547.729 197.099 547.867 195.915 548.258C194.735 548.62 193.693 549.209 192.791 550.026C191.891 550.814 191.16 551.817 190.599 553.036C190.037 554.255 189.69 555.665 189.556 557.264C189.419 558.921 189.57 560.387 190.01 561.66C190.48 562.936 191.138 564.012 191.986 564.888C192.836 565.736 193.815 566.407 194.925 566.902C196.036 567.368 197.192 567.652 198.392 567.751C199.821 567.87 201.054 567.915 202.092 567.887C203.161 567.832 204.043 567.603 204.738 567.201C205.461 566.801 206.017 566.171 206.405 565.312C206.822 564.455 207.092 563.283 207.215 561.798L200.702 561.256L201.119 556.242L212.689 557.205L211.288 574.046ZM218.067 544.406L237.479 546.021L237.062 551.035L222.964 549.862L222.418 556.418L234.374 557.413L233.956 562.427L222.001 561.432L221.302 569.831L235.4 571.004L234.983 576.018L215.571 574.402L218.067 544.406ZM266.433 559.348L256.336 574.904L253.251 574.647L245.514 557.693L243.927 576.762L238.614 576.32L241.11 546.324L246.681 546.787L255.553 566.684L267.078 548.485L272.692 548.952L270.195 578.948L264.882 578.506L266.433 559.348ZM276.319 549.254L295.731 550.87L295.314 555.883L281.215 554.71L280.67 561.266L292.625 562.261L292.208 567.275L280.252 566.28L279.553 574.679L293.652 575.852L293.234 580.866L273.822 579.25L276.319 549.254ZM300.005 551.225L305.318 551.667L317.894 573.21L319.588 552.855L324.902 553.297L322.405 583.294L317.091 582.851L317.095 582.809L304.516 561.309L302.822 581.664L297.508 581.222L300.005 551.225ZM339.084 559.526L330.471 558.809L330.888 553.796L353 555.636L352.582 560.65L344.398 559.968L342.318 584.951L337.005 584.509L339.084 559.526Z" fill="black"/>
<line x1="232.639" y1="328.306" x2="120.396" y2="473.562" stroke="black"/>
</svg>
