<svg width="1141" height="657" viewBox="0 0 1141 657" fill="none" xmlns="http://www.w3.org/2000/svg">
<line x1="0.94896" y1="14.0002" x2="960.949" y2="7.00019" stroke="#184E2B" stroke-width="14"/>
<line x1="958" y1="1" x2="958" y2="258" stroke="#184E2B" stroke-width="14"/>
<rect x="931" y="252" width="54" height="26" fill="#184E2B"/>
<path d="M931.982 311.512C935.675 301.974 946.215 297.08 951.024 295.825V277H963.719V311.512C946.177 307.998 943.33 323.434 944.099 331.592C945.023 344.141 957.564 345.187 963.719 344.141C973.232 342.525 975.837 331.592 976.414 325.317C977.337 318.791 981.03 318.414 982.761 319.042C987.954 319.042 988.147 326.362 987.954 331.592C986.108 354.683 971.395 360 959.957 360C947.174 360 936.983 352.508 934.29 347.906C924.134 336.36 928.519 318.833 931.982 311.512Z" fill="#184E2B" stroke="#184E2B"/>
<line x1="957.686" y1="344.75" x2="1040.75" y2="488.621" stroke="black"/>
<rect x="742.337" y="460.407" width="399.778" height="164.675" transform="rotate(4.64542 742.337 460.407)" fill="#D9D9D9"/>
<path d="M784.975 496.417L774.878 511.973L771.793 511.716L764.056 494.762L762.469 513.831L757.156 513.389L759.652 483.393L765.223 483.856L774.095 503.753L785.621 485.554L791.234 486.021L788.738 516.018L783.424 515.575L784.975 496.417ZM803.046 487.004L809.602 487.55L817.433 518.406L812.034 517.956L809.979 509.458L799.052 508.548L795.621 516.591L790.222 516.141L803.046 487.004ZM808.768 504.309L805.925 492.335L801.098 503.67L808.768 504.309ZM823.778 488.73L829.091 489.172L841.667 510.714L843.361 490.36L848.675 490.802L846.178 520.798L840.865 520.356L840.868 520.313L828.289 498.814L826.595 519.168L821.281 518.726L823.778 488.73ZM852.945 491.157L858.259 491.6L856.758 509.64C856.579 511.783 857.079 513.55 858.258 514.943C859.465 516.338 861.169 517.127 863.368 517.31C865.511 517.488 867.278 516.988 868.671 515.81C870.064 514.631 870.849 512.97 871.027 510.828L872.529 492.787L877.842 493.229L876.369 510.927C876.217 512.756 875.778 514.402 875.052 515.866C874.326 517.33 873.375 518.56 872.199 519.555C871.024 520.55 869.625 521.283 868.004 521.752C866.414 522.195 864.661 522.337 862.747 522.177C860.919 522.025 859.272 521.6 857.805 520.903C856.341 520.177 855.111 519.226 854.116 518.05C853.121 516.874 852.386 515.504 851.912 513.94C851.467 512.379 851.32 510.684 851.473 508.855L852.945 491.157ZM882.113 493.585L900.668 495.129L900.251 500.143L887.01 499.041L886.439 505.897L897.538 506.821L897.12 511.835L886.022 510.911L884.93 524.023L879.617 523.581L882.113 493.585ZM911.012 495.99L917.569 496.536L925.399 527.392L920 526.942L917.946 518.444L907.019 517.534L903.588 525.576L898.189 525.127L911.012 495.99ZM916.735 513.294L913.891 501.321L909.064 512.656L916.735 513.294ZM933.685 513.065C933.561 514.551 933.677 515.927 934.032 517.193C934.387 518.46 934.956 519.572 935.739 520.529C936.522 521.485 937.508 522.258 938.696 522.846C939.884 523.434 941.264 523.793 942.835 523.924C944.72 524.081 946.39 523.889 947.845 523.348C949.302 522.779 950.525 521.903 951.516 520.72L955.562 524.465C954.065 526.21 952.202 527.508 949.974 528.358C947.777 529.182 945.292 529.479 942.521 529.248C940.207 529.056 938.123 528.522 936.268 527.649C934.445 526.749 932.917 525.572 931.686 524.118C930.456 522.663 929.547 520.962 928.961 519.015C928.375 517.068 928.178 514.952 928.368 512.666C928.563 510.324 929.111 508.226 930.013 506.374C930.946 504.495 932.156 502.928 933.641 501.671C935.157 500.387 936.905 499.44 938.883 498.828C940.89 498.218 943.05 498.009 945.364 498.202C948.107 498.43 950.477 499.16 952.474 500.39C954.472 501.621 956.049 503.233 957.206 505.228L952.646 508.171C951.894 506.843 950.846 505.778 949.504 504.976C948.163 504.145 946.55 503.651 944.665 503.494C943.122 503.366 941.701 503.506 940.401 503.916C939.13 504.328 938.012 504.968 937.048 505.837C936.086 506.678 935.309 507.721 934.717 508.966C934.155 510.185 933.811 511.551 933.685 513.065ZM969.066 505.87L960.453 505.153L960.87 500.14L982.982 501.98L982.564 506.994L974.38 506.312L972.3 531.295L966.987 530.853L969.066 505.87ZM988.992 502.48L994.305 502.922L992.804 520.963C992.626 523.106 993.126 524.873 994.304 526.266C995.511 527.661 997.215 528.45 999.414 528.633C1001.56 528.811 1003.32 528.311 1004.72 527.132C1006.11 525.954 1006.9 524.293 1007.07 522.151L1008.57 504.11L1013.89 504.552L1012.42 522.25C1012.26 524.078 1011.82 525.725 1011.1 527.189C1010.37 528.653 1009.42 529.883 1008.25 530.878C1007.07 531.873 1005.67 532.605 1004.05 533.075C1002.46 533.517 1000.71 533.659 998.794 533.5C996.965 533.348 995.318 532.923 993.851 532.226C992.387 531.5 991.157 530.549 990.162 529.373C989.167 528.197 988.432 526.827 987.958 525.263C987.513 523.701 987.367 522.006 987.519 520.178L988.992 502.48ZM1028.96 505.806C1030.3 505.918 1031.51 506.235 1032.59 506.756C1033.67 507.277 1034.56 507.97 1035.26 508.834C1036 509.7 1036.53 510.709 1036.87 511.858C1037.2 513.008 1037.31 514.269 1037.2 515.64C1037.04 517.554 1036.49 519.177 1035.54 520.507C1034.63 521.841 1033.41 522.818 1031.89 523.44L1038.63 536.816L1032.33 536.291L1026.63 523.951L1021.1 523.491L1020.12 535.275L1014.81 534.833L1017.3 504.836L1028.96 505.806ZM1021.79 510L1021.07 518.698L1027.24 519.212C1028.52 519.319 1029.58 519.019 1030.42 518.312C1031.29 517.578 1031.78 516.54 1031.89 515.198C1032 513.884 1031.68 512.808 1030.95 511.97C1030.24 511.106 1029.25 510.62 1027.96 510.513L1021.79 510ZM1046.28 507.248L1051.59 507.69L1049.1 537.687L1043.78 537.244L1046.28 507.248ZM1055.86 508.046L1061.18 508.488L1073.75 530.03L1075.45 509.676L1080.76 510.118L1078.26 540.114L1072.95 539.672L1072.95 539.629L1060.38 518.13L1058.68 538.484L1053.37 538.042L1055.86 508.046ZM1110.47 542.795L1105.42 542.374L1105.54 540.917C1104.35 541.422 1103.01 541.785 1101.52 542.007C1100.07 542.202 1098.57 542.236 1097.03 542.107C1094.71 541.915 1092.64 541.383 1090.82 540.512C1088.99 539.612 1087.47 538.435 1086.23 536.98C1085 535.526 1084.09 533.825 1083.51 531.878C1082.92 529.93 1082.73 527.814 1082.92 525.529C1083.11 523.186 1083.66 521.089 1084.56 519.237C1085.49 517.358 1086.7 515.79 1088.19 514.533C1089.71 513.25 1091.45 512.302 1093.43 511.69C1095.44 511.08 1097.6 510.872 1099.91 511.065C1102.65 511.293 1105.02 512.022 1107.02 513.253C1109.02 514.483 1110.6 516.096 1111.75 518.091L1107.06 521.627C1106.22 520.263 1105.2 519.127 1103.98 518.22C1102.76 517.313 1101.08 516.771 1098.93 516.592C1097.56 516.478 1096.29 516.617 1095.1 517.007C1093.92 517.369 1092.88 517.958 1091.98 518.775C1091.08 519.563 1090.35 520.567 1089.79 521.786C1089.22 523.005 1088.88 524.414 1088.74 526.014C1088.61 527.671 1088.76 529.136 1089.2 530.41C1089.67 531.686 1090.33 532.761 1091.17 533.637C1092.02 534.485 1093 535.156 1094.11 535.651C1095.22 536.118 1096.38 536.401 1097.58 536.501C1099.01 536.62 1100.24 536.665 1101.28 536.636C1102.35 536.581 1103.23 536.353 1103.92 535.95C1104.65 535.55 1105.2 534.92 1105.59 534.061C1106.01 533.204 1106.28 532.033 1106.4 530.547L1099.89 530.005L1100.31 524.991L1111.88 525.954L1110.47 542.795ZM1116.95 540.098L1122.22 540.537L1118.39 547.768L1114.4 547.437L1116.95 540.098ZM827.363 535.543C828.82 535.665 830.117 535.974 831.255 536.472C832.396 536.94 833.349 537.581 834.116 538.392C834.885 539.176 835.44 540.113 835.78 541.206C836.152 542.273 836.267 543.476 836.127 544.816L830.735 544.281C830.842 543.686 830.799 543.165 830.606 542.717C830.444 542.243 830.175 541.847 829.799 541.528C829.454 541.183 829.03 540.918 828.527 540.732C828.025 540.546 827.489 540.415 826.921 540.339C825.725 540.182 824.665 540.31 823.739 540.722C822.841 541.136 822.344 541.756 822.246 542.582C822.168 543.525 822.475 544.327 823.168 544.989C823.861 545.651 824.757 546.286 825.857 546.896C826.957 547.505 828.141 548.136 829.41 548.788C830.708 549.442 831.894 550.232 832.967 551.155C834.043 552.05 834.902 553.143 835.542 554.433C836.185 555.695 836.431 557.24 836.278 559.068C836.19 560.125 835.861 561.148 835.29 562.136C834.749 563.097 833.989 563.94 833.008 564.664C832.03 565.359 830.835 565.893 829.423 566.264C828.011 566.636 826.391 566.745 824.563 566.593C821.28 566.291 818.775 565.277 817.049 563.552C815.323 561.826 814.587 559.435 814.842 556.378L820.752 556.913C820.661 557.653 820.721 558.32 820.93 558.912C821.142 559.477 821.461 559.963 821.888 560.373C822.342 560.785 822.861 561.116 823.445 561.365C824.03 561.587 824.636 561.738 825.262 561.819C825.831 561.895 826.406 561.9 826.987 561.833C827.599 561.74 828.144 561.584 828.622 561.365C829.103 561.117 829.503 560.805 829.822 560.429C830.172 560.027 830.371 559.54 830.418 558.969C830.487 558.14 830.331 557.422 829.95 556.815C829.569 556.208 829.025 555.66 828.318 555.169C827.642 554.653 826.848 554.17 825.936 553.72C825.055 553.244 824.146 552.765 823.208 552.285C822.272 551.775 821.369 551.225 820.497 550.635C819.626 550.045 818.849 549.362 818.165 548.586C817.513 547.783 817.014 546.864 816.669 545.829C816.324 544.793 816.223 543.577 816.369 542.179C816.516 540.753 816.916 539.579 817.568 538.655C818.22 537.731 819.041 537.023 820.032 536.53C821.053 536.011 822.187 535.688 823.435 535.562C824.713 535.409 826.022 535.403 827.363 535.543ZM843.314 537.518L848.628 537.961L847.126 556.001C846.948 558.144 847.448 559.911 848.627 561.304C849.834 562.699 851.537 563.488 853.737 563.671C855.88 563.849 857.647 563.349 859.04 562.171C860.432 560.992 861.218 559.331 861.396 557.189L862.897 539.148L868.211 539.59L866.738 557.288C866.586 559.117 866.147 560.763 865.421 562.227C864.695 563.691 863.744 564.921 862.568 565.916C861.392 566.911 859.994 567.643 858.372 568.113C856.782 568.556 855.03 568.697 853.116 568.538C851.288 568.386 849.64 567.961 848.174 567.264C846.71 566.538 845.48 565.587 844.485 564.411C843.489 563.235 842.755 561.865 842.281 560.301C841.836 558.739 841.689 557.044 841.841 555.216L843.314 537.518ZM883.281 540.845C884.623 540.956 885.834 541.273 886.912 541.794C887.991 542.315 888.882 543.008 889.587 543.872C890.32 544.739 890.855 545.747 891.191 546.897C891.527 548.046 891.637 549.307 891.523 550.678C891.409 552.049 891.09 553.289 890.567 554.396C890.045 555.474 889.352 556.38 888.485 557.113C887.65 557.82 886.656 558.356 885.504 558.721C884.354 559.056 883.107 559.168 881.765 559.057L875.423 558.529L874.442 570.313L869.128 569.871L871.625 539.875L883.281 540.845ZM876.543 545.073L875.819 553.772L880.789 554.186C881.446 554.241 882.08 554.236 882.689 554.171C883.301 554.079 883.85 553.88 884.335 553.575C884.849 553.273 885.272 552.862 885.603 552.343C885.936 551.795 886.138 551.093 886.21 550.236C886.281 549.379 886.196 548.667 885.956 548.1C885.718 547.505 885.369 547.03 884.909 546.676C884.481 546.295 883.971 546.022 883.381 545.858C882.793 545.665 882.17 545.542 881.513 545.487L876.543 545.073ZM908.222 542.92C909.564 543.032 910.775 543.349 911.853 543.87C912.932 544.391 913.823 545.084 914.528 545.948C915.262 546.814 915.796 547.822 916.132 548.972C916.468 550.122 916.579 551.383 916.464 552.754C916.35 554.125 916.031 555.364 915.508 556.471C914.987 557.55 914.293 558.456 913.426 559.189C912.591 559.896 911.597 560.432 910.445 560.796C909.295 561.132 908.049 561.244 906.706 561.132L900.364 560.605L899.383 572.389L894.069 571.947L896.566 541.95L908.222 542.92ZM901.484 547.149L900.76 555.848L905.73 556.262C906.388 556.316 907.021 556.312 907.63 556.247C908.242 556.154 908.791 555.955 909.276 555.651C909.791 555.348 910.213 554.938 910.544 554.419C910.877 553.871 911.079 553.169 911.151 552.312C911.222 551.455 911.138 550.743 910.897 550.176C910.659 549.581 910.31 549.106 909.851 548.752C909.422 548.371 908.913 548.098 908.322 547.934C907.734 547.741 907.112 547.617 906.454 547.563L901.484 547.149ZM922.364 544.097L927.678 544.54L925.598 569.522L939.225 570.656L938.808 575.67L919.868 574.094L922.364 544.097ZM947.097 576.36L948.22 562.862L940.894 545.64L946.765 546.128L951.355 557.341L957.435 547.016L963.22 547.498L953.534 563.304L952.41 576.802L947.097 576.36ZM984.699 549.285L991.256 549.831L999.087 580.687L993.687 580.238L991.633 571.739L980.706 570.829L977.275 578.872L971.876 578.422L984.699 549.285ZM990.422 566.59L987.578 554.617L982.751 565.951L990.422 566.59ZM1005.43 551.011L1010.74 551.453L1023.32 572.995L1025.01 552.641L1030.33 553.083L1027.83 583.079L1022.52 582.637L1022.52 582.594L1009.94 561.095L1008.25 581.449L1002.93 581.007L1005.43 551.011ZM1045.53 554.348C1047.75 554.533 1049.75 555.059 1051.52 555.926C1053.29 556.792 1054.76 557.936 1055.94 559.357C1057.15 560.752 1058.03 562.393 1058.59 564.281C1059.16 566.169 1059.34 568.227 1059.16 570.455C1058.97 572.769 1058.44 574.825 1057.57 576.622C1056.7 578.42 1055.55 579.921 1054.13 581.126C1052.73 582.333 1051.09 583.217 1049.2 583.779C1047.32 584.341 1045.26 584.53 1043.03 584.344L1032.1 583.435L1034.6 553.438L1045.53 554.348ZM1039.5 558.894L1037.83 578.863L1043.15 579.306C1044.63 579.429 1045.99 579.312 1047.23 578.955C1048.5 578.572 1049.6 577.973 1050.53 577.159C1051.46 576.344 1052.21 575.342 1052.77 574.152C1053.35 572.964 1053.71 571.598 1053.84 570.056C1053.96 568.57 1053.83 567.207 1053.45 565.967C1053.09 564.7 1052.52 563.603 1051.74 562.675C1050.95 561.718 1049.97 560.96 1048.78 560.4C1047.62 559.815 1046.29 559.46 1044.81 559.337L1039.5 558.894ZM790.81 580.311L796.124 580.753L793.627 610.75L788.314 610.307L790.81 580.311ZM800.393 581.109L805.707 581.551L818.282 603.093L819.976 582.738L825.29 583.181L822.794 613.177L817.48 612.735L817.483 612.692L804.904 591.192L803.21 611.547L797.897 611.105L800.393 581.109ZM839.513 583.717C840.97 583.838 842.268 584.148 843.406 584.645C844.546 585.114 845.499 585.754 846.266 586.566C847.035 587.349 847.59 588.287 847.93 589.38C848.302 590.446 848.418 591.65 848.277 592.99L842.885 592.455C842.992 591.86 842.949 591.338 842.756 590.891C842.594 590.417 842.325 590.021 841.949 589.702C841.604 589.357 841.18 589.091 840.678 588.906C840.175 588.72 839.64 588.589 839.071 588.513C837.876 588.356 836.815 588.484 835.889 588.895C834.992 589.31 834.494 589.93 834.397 590.756C834.318 591.699 834.625 592.501 835.318 593.163C836.011 593.825 836.907 594.46 838.007 595.069C839.107 595.679 840.292 596.31 841.561 596.962C842.858 597.616 844.044 598.405 845.118 599.329C846.194 600.224 847.052 601.316 847.693 602.607C848.335 603.868 848.581 605.413 848.429 607.242C848.341 608.299 848.011 609.321 847.44 610.309C846.9 611.271 846.139 612.114 845.158 612.838C844.18 613.533 842.985 614.066 841.573 614.438C840.162 614.809 838.542 614.919 836.713 614.767C833.43 614.465 830.926 613.451 829.2 611.725C827.473 610 826.738 607.608 826.992 604.551L832.902 605.086C832.812 605.827 832.871 606.493 833.081 607.086C833.293 607.65 833.612 608.137 834.038 608.547C834.493 608.958 835.012 609.289 835.595 609.539C836.181 609.761 836.786 609.912 837.413 609.993C837.982 610.069 838.556 610.073 839.137 610.007C839.749 609.914 840.294 609.758 840.773 609.539C841.254 609.291 841.654 608.979 841.973 608.603C842.322 608.201 842.521 607.714 842.569 607.142C842.638 606.314 842.482 605.596 842.101 604.989C841.72 604.382 841.176 603.833 840.469 603.343C839.792 602.827 838.998 602.343 838.087 601.894C837.206 601.417 836.296 600.939 835.358 600.458C834.423 599.949 833.519 599.399 832.648 598.809C831.776 598.218 830.999 597.535 830.316 596.759C829.663 595.957 829.164 595.038 828.819 594.003C828.474 592.967 828.374 591.751 828.519 590.353C828.666 588.927 829.066 587.752 829.718 586.829C830.37 585.905 831.192 585.196 832.182 584.704C833.203 584.184 834.338 583.862 835.585 583.735C836.863 583.583 838.173 583.577 839.513 583.717ZM861.945 591.28L853.331 590.563L853.749 585.549L875.86 587.39L875.443 592.403L867.258 591.722L865.179 616.705L859.865 616.262L861.945 591.28ZM885.786 588.216L892.343 588.761L900.174 619.617L894.774 619.168L892.72 610.669L881.793 609.76L878.362 617.802L872.963 617.352L885.786 588.216ZM891.509 605.52L888.665 593.547L883.838 604.882L891.509 605.52ZM906.518 589.941L911.832 590.383L909.753 615.366L923.38 616.5L922.962 621.514L904.022 619.937L906.518 589.941ZM931.459 592.017L936.773 592.459L934.694 617.442L948.321 618.576L947.903 623.59L928.963 622.013L931.459 592.017ZM964.585 594.774L971.142 595.32L978.972 626.175L973.573 625.726L971.519 617.227L960.592 616.318L957.161 624.36L951.761 623.911L964.585 594.774ZM970.308 612.078L967.464 600.105L962.637 611.44L970.308 612.078ZM989.245 601.875L980.632 601.158L981.049 596.144L1003.16 597.984L1002.74 602.998L994.558 602.317L992.479 627.299L987.165 626.857L989.245 601.875ZM1009.17 598.485L1014.48 598.927L1011.99 628.923L1006.67 628.481L1009.17 598.485ZM1016.42 614.32C1016.62 611.977 1017.17 609.88 1018.07 608.027C1019 606.149 1020.21 604.581 1021.7 603.324C1023.21 602.041 1024.96 601.093 1026.94 600.481C1028.92 599.869 1031.06 599.659 1033.38 599.852C1035.69 600.045 1037.74 600.604 1039.54 601.53C1041.36 602.458 1042.87 603.662 1044.07 605.143C1045.3 606.626 1046.19 608.354 1046.74 610.328C1047.3 612.301 1047.48 614.431 1047.29 616.716C1047.1 619.059 1046.55 621.156 1045.65 623.008C1044.75 624.832 1043.57 626.359 1042.11 627.59C1040.66 628.821 1038.94 629.728 1036.97 630.312C1035.02 630.898 1032.89 631.094 1030.58 630.902C1028.26 630.709 1026.18 630.176 1024.32 629.303C1022.5 628.403 1020.97 627.226 1019.74 625.771C1018.51 624.317 1017.6 622.616 1017.02 620.669C1016.43 618.721 1016.23 616.605 1016.42 614.32ZM1032.85 605.158C1031.31 605.03 1029.88 605.171 1028.58 605.58C1027.29 605.961 1026.14 606.571 1025.15 607.409C1024.19 608.221 1023.42 609.249 1022.83 610.495C1022.23 611.74 1021.87 613.148 1021.74 614.719C1021.61 616.262 1021.73 617.666 1022.08 618.933C1022.46 620.202 1023.05 621.314 1023.83 622.271C1024.64 623.202 1025.66 623.963 1026.88 624.553C1028.1 625.115 1029.48 625.46 1031.02 625.588C1032.56 625.716 1033.98 625.604 1035.28 625.252C1036.57 624.871 1037.69 624.273 1038.62 623.459C1039.58 622.647 1040.34 621.632 1040.9 620.413C1041.49 619.196 1041.85 617.817 1041.98 616.274C1042.11 614.731 1041.99 613.312 1041.64 612.017C1041.29 610.694 1040.71 609.552 1039.9 608.593C1039.12 607.607 1038.13 606.821 1036.94 606.233C1035.76 605.645 1034.39 605.287 1032.85 605.158ZM1053.44 602.169L1058.76 602.612L1071.33 624.154L1073.03 603.799L1078.34 604.242L1075.85 634.238L1070.53 633.796L1070.54 633.753L1057.96 612.253L1056.26 632.608L1050.95 632.166L1053.44 602.169Z" fill="black"/>
<line x1="950.653" y1="345.306" x2="848.653" y2="477.306" stroke="black"/>
</svg>
